<mxfile host="app.diagrams.net" modified="2022-11-02T10:35:48.950Z" agent="5.0 (Macintosh; Intel Mac OS X 10_15_7) AppleWebKit/537.36 (KHTML, like Gecko) Chrome/106.0.0.0 Safari/537.36" etag="42-8OtfCaAMBAw1KREpU" version="20.5.1" type="github">
  <diagram id="C5RBs43oDa-KdzZeNtuy" name="Page-1">
    <mxGraphModel dx="1882" dy="1208" grid="1" gridSize="10" guides="1" tooltips="1" connect="1" arrows="1" fold="1" page="1" pageScale="1" pageWidth="827" pageHeight="1169" math="0" shadow="0">
      <root>
        <mxCell id="WIyWlLk6GJQsqaUBKTNV-0" />
        <mxCell id="WIyWlLk6GJQsqaUBKTNV-1" parent="WIyWlLk6GJQsqaUBKTNV-0" />
        <mxCell id="Rn8_tyqdsI2CR-qfbdHv-0" value="T1 - температура разгона&lt;br&gt;T2 - температура остановки&lt;br&gt;P - мощность тэна %" style="shape=parallelogram;perimeter=parallelogramPerimeter;whiteSpace=wrap;html=1;fixedSize=1;" vertex="1" parent="WIyWlLk6GJQsqaUBKTNV-1">
          <mxGeometry x="134" y="50" width="226" height="70" as="geometry" />
        </mxCell>
        <mxCell id="Rn8_tyqdsI2CR-qfbdHv-7" style="edgeStyle=orthogonalEdgeStyle;rounded=0;orthogonalLoop=1;jettySize=auto;html=1;exitX=0.5;exitY=1;exitDx=0;exitDy=0;entryX=0.5;entryY=0;entryDx=0;entryDy=0;" edge="1" parent="WIyWlLk6GJQsqaUBKTNV-1" source="Rn8_tyqdsI2CR-qfbdHv-1" target="Rn8_tyqdsI2CR-qfbdHv-4">
          <mxGeometry relative="1" as="geometry" />
        </mxCell>
        <mxCell id="Rn8_tyqdsI2CR-qfbdHv-1" value="Запуск" style="rounded=1;whiteSpace=wrap;html=1;" vertex="1" parent="WIyWlLk6GJQsqaUBKTNV-1">
          <mxGeometry x="176" y="155" width="120" height="30" as="geometry" />
        </mxCell>
        <mxCell id="Rn8_tyqdsI2CR-qfbdHv-2" value="" style="rounded=0;html=1;jettySize=auto;orthogonalLoop=1;fontSize=11;endArrow=block;endFill=0;endSize=8;strokeWidth=1;shadow=0;labelBackgroundColor=none;edgeStyle=orthogonalEdgeStyle;exitX=0.451;exitY=1.014;exitDx=0;exitDy=0;exitPerimeter=0;entryX=0.5;entryY=0;entryDx=0;entryDy=0;" edge="1" parent="WIyWlLk6GJQsqaUBKTNV-1" source="Rn8_tyqdsI2CR-qfbdHv-0" target="Rn8_tyqdsI2CR-qfbdHv-1">
          <mxGeometry relative="1" as="geometry">
            <mxPoint x="204" y="450" as="sourcePoint" />
            <mxPoint x="204" y="500" as="targetPoint" />
          </mxGeometry>
        </mxCell>
        <mxCell id="Rn8_tyqdsI2CR-qfbdHv-3" value="&lt;h1&gt;Компоненты&lt;/h1&gt;&lt;p&gt;D1, D2, D3 - датчики уровня&lt;br&gt;K1, K2, K3 -&amp;nbsp; клапана&lt;br&gt;Tt1 , Tt2 - датчики температуры&lt;br&gt;MQ - датчик спирта&lt;br&gt;TP - нагрузка тэна, %&lt;br&gt;Kw - клапан воды&lt;/p&gt;" style="text;html=1;strokeColor=none;fillColor=none;spacing=5;spacingTop=-20;whiteSpace=wrap;overflow=hidden;rounded=0;" vertex="1" parent="WIyWlLk6GJQsqaUBKTNV-1">
          <mxGeometry x="460" y="35" width="190" height="145" as="geometry" />
        </mxCell>
        <mxCell id="Rn8_tyqdsI2CR-qfbdHv-6" style="edgeStyle=orthogonalEdgeStyle;rounded=0;orthogonalLoop=1;jettySize=auto;html=1;exitX=0.5;exitY=1;exitDx=0;exitDy=0;entryX=0.5;entryY=0;entryDx=0;entryDy=0;" edge="1" parent="WIyWlLk6GJQsqaUBKTNV-1" source="Rn8_tyqdsI2CR-qfbdHv-4" target="Rn8_tyqdsI2CR-qfbdHv-5">
          <mxGeometry relative="1" as="geometry" />
        </mxCell>
        <mxCell id="Rn8_tyqdsI2CR-qfbdHv-4" value="TP = 100&lt;br&gt;Kw = on" style="rounded=0;whiteSpace=wrap;html=1;" vertex="1" parent="WIyWlLk6GJQsqaUBKTNV-1">
          <mxGeometry x="178" y="210" width="120" height="30" as="geometry" />
        </mxCell>
        <mxCell id="Rn8_tyqdsI2CR-qfbdHv-9" value="нет" style="edgeStyle=orthogonalEdgeStyle;rounded=0;orthogonalLoop=1;jettySize=auto;html=1;exitX=0;exitY=0.5;exitDx=0;exitDy=0;entryX=0.5;entryY=0;entryDx=0;entryDy=0;" edge="1" parent="WIyWlLk6GJQsqaUBKTNV-1" source="Rn8_tyqdsI2CR-qfbdHv-5" target="Rn8_tyqdsI2CR-qfbdHv-5">
          <mxGeometry x="-0.826" relative="1" as="geometry">
            <mxPoint x="234" y="260" as="targetPoint" />
            <Array as="points">
              <mxPoint x="100" y="304" />
              <mxPoint x="100" y="260" />
              <mxPoint x="234" y="260" />
            </Array>
            <mxPoint as="offset" />
          </mxGeometry>
        </mxCell>
        <mxCell id="Rn8_tyqdsI2CR-qfbdHv-11" style="edgeStyle=orthogonalEdgeStyle;rounded=0;orthogonalLoop=1;jettySize=auto;html=1;exitX=0.5;exitY=1;exitDx=0;exitDy=0;entryX=0.5;entryY=0;entryDx=0;entryDy=0;" edge="1" parent="WIyWlLk6GJQsqaUBKTNV-1" source="Rn8_tyqdsI2CR-qfbdHv-5" target="Rn8_tyqdsI2CR-qfbdHv-10">
          <mxGeometry relative="1" as="geometry" />
        </mxCell>
        <mxCell id="Rn8_tyqdsI2CR-qfbdHv-41" value="да" style="edgeLabel;html=1;align=center;verticalAlign=middle;resizable=0;points=[];" vertex="1" connectable="0" parent="Rn8_tyqdsI2CR-qfbdHv-11">
          <mxGeometry x="-0.5163" relative="1" as="geometry">
            <mxPoint as="offset" />
          </mxGeometry>
        </mxCell>
        <mxCell id="Rn8_tyqdsI2CR-qfbdHv-5" value="Tt1 &amp;gt;= T1" style="rhombus;whiteSpace=wrap;html=1;" vertex="1" parent="WIyWlLk6GJQsqaUBKTNV-1">
          <mxGeometry x="194" y="264" width="80" height="80" as="geometry" />
        </mxCell>
        <mxCell id="Rn8_tyqdsI2CR-qfbdHv-15" style="edgeStyle=orthogonalEdgeStyle;rounded=0;orthogonalLoop=1;jettySize=auto;html=1;exitX=0.5;exitY=1;exitDx=0;exitDy=0;entryX=0.5;entryY=0;entryDx=0;entryDy=0;" edge="1" parent="WIyWlLk6GJQsqaUBKTNV-1" source="Rn8_tyqdsI2CR-qfbdHv-10" target="Rn8_tyqdsI2CR-qfbdHv-12">
          <mxGeometry relative="1" as="geometry" />
        </mxCell>
        <mxCell id="Rn8_tyqdsI2CR-qfbdHv-10" value="TP = P &lt;br&gt;K1 = on" style="rounded=0;whiteSpace=wrap;html=1;" vertex="1" parent="WIyWlLk6GJQsqaUBKTNV-1">
          <mxGeometry x="175" y="368" width="120" height="40" as="geometry" />
        </mxCell>
        <mxCell id="Rn8_tyqdsI2CR-qfbdHv-14" value="" style="edgeStyle=orthogonalEdgeStyle;rounded=0;orthogonalLoop=1;jettySize=auto;html=1;" edge="1" parent="WIyWlLk6GJQsqaUBKTNV-1" source="Rn8_tyqdsI2CR-qfbdHv-12" target="Rn8_tyqdsI2CR-qfbdHv-13">
          <mxGeometry relative="1" as="geometry" />
        </mxCell>
        <mxCell id="Rn8_tyqdsI2CR-qfbdHv-16" value="нет" style="edgeLabel;html=1;align=center;verticalAlign=middle;resizable=0;points=[];" vertex="1" connectable="0" parent="Rn8_tyqdsI2CR-qfbdHv-14">
          <mxGeometry x="-0.0423" y="-1" relative="1" as="geometry">
            <mxPoint x="-54" y="-1" as="offset" />
          </mxGeometry>
        </mxCell>
        <mxCell id="Rn8_tyqdsI2CR-qfbdHv-26" style="edgeStyle=orthogonalEdgeStyle;rounded=0;orthogonalLoop=1;jettySize=auto;html=1;exitX=0.5;exitY=1;exitDx=0;exitDy=0;entryX=0.5;entryY=0;entryDx=0;entryDy=0;" edge="1" parent="WIyWlLk6GJQsqaUBKTNV-1" source="Rn8_tyqdsI2CR-qfbdHv-12" target="Rn8_tyqdsI2CR-qfbdHv-24">
          <mxGeometry relative="1" as="geometry" />
        </mxCell>
        <mxCell id="Rn8_tyqdsI2CR-qfbdHv-44" value="да" style="edgeLabel;html=1;align=center;verticalAlign=middle;resizable=0;points=[];" vertex="1" connectable="0" parent="Rn8_tyqdsI2CR-qfbdHv-26">
          <mxGeometry x="-0.3333" relative="1" as="geometry">
            <mxPoint as="offset" />
          </mxGeometry>
        </mxCell>
        <mxCell id="Rn8_tyqdsI2CR-qfbdHv-12" value="D1 = on" style="rhombus;whiteSpace=wrap;html=1;" vertex="1" parent="WIyWlLk6GJQsqaUBKTNV-1">
          <mxGeometry x="195" y="440" width="80" height="80" as="geometry" />
        </mxCell>
        <mxCell id="Rn8_tyqdsI2CR-qfbdHv-18" style="edgeStyle=orthogonalEdgeStyle;rounded=0;orthogonalLoop=1;jettySize=auto;html=1;exitX=1;exitY=0.5;exitDx=0;exitDy=0;entryX=0;entryY=0.5;entryDx=0;entryDy=0;" edge="1" parent="WIyWlLk6GJQsqaUBKTNV-1" source="Rn8_tyqdsI2CR-qfbdHv-13" target="Rn8_tyqdsI2CR-qfbdHv-51">
          <mxGeometry relative="1" as="geometry">
            <mxPoint x="590" y="400" as="targetPoint" />
          </mxGeometry>
        </mxCell>
        <mxCell id="Rn8_tyqdsI2CR-qfbdHv-19" value="нет" style="edgeLabel;html=1;align=center;verticalAlign=middle;resizable=0;points=[];" vertex="1" connectable="0" parent="Rn8_tyqdsI2CR-qfbdHv-18">
          <mxGeometry x="0.0756" y="1" relative="1" as="geometry">
            <mxPoint x="-7" y="1" as="offset" />
          </mxGeometry>
        </mxCell>
        <mxCell id="Rn8_tyqdsI2CR-qfbdHv-21" style="edgeStyle=orthogonalEdgeStyle;rounded=0;orthogonalLoop=1;jettySize=auto;html=1;exitX=0.5;exitY=1;exitDx=0;exitDy=0;entryX=1;entryY=0.5;entryDx=0;entryDy=0;" edge="1" parent="WIyWlLk6GJQsqaUBKTNV-1" source="Rn8_tyqdsI2CR-qfbdHv-13" target="Rn8_tyqdsI2CR-qfbdHv-22">
          <mxGeometry relative="1" as="geometry">
            <mxPoint x="470" y="650" as="targetPoint" />
            <Array as="points">
              <mxPoint x="470" y="935" />
            </Array>
          </mxGeometry>
        </mxCell>
        <mxCell id="Rn8_tyqdsI2CR-qfbdHv-25" value="да" style="edgeLabel;html=1;align=center;verticalAlign=middle;resizable=0;points=[];" vertex="1" connectable="0" parent="Rn8_tyqdsI2CR-qfbdHv-21">
          <mxGeometry x="-0.3995" y="-3" relative="1" as="geometry">
            <mxPoint x="3" y="-168" as="offset" />
          </mxGeometry>
        </mxCell>
        <mxCell id="Rn8_tyqdsI2CR-qfbdHv-13" value="Tt2 &amp;gt; T2" style="rhombus;whiteSpace=wrap;html=1;" vertex="1" parent="WIyWlLk6GJQsqaUBKTNV-1">
          <mxGeometry x="430" y="440" width="80" height="80" as="geometry" />
        </mxCell>
        <mxCell id="Rn8_tyqdsI2CR-qfbdHv-33" style="edgeStyle=orthogonalEdgeStyle;rounded=0;orthogonalLoop=1;jettySize=auto;html=1;exitX=0.5;exitY=1;exitDx=0;exitDy=0;entryX=0.5;entryY=0;entryDx=0;entryDy=0;" edge="1" parent="WIyWlLk6GJQsqaUBKTNV-1" source="Rn8_tyqdsI2CR-qfbdHv-22" target="Rn8_tyqdsI2CR-qfbdHv-23">
          <mxGeometry relative="1" as="geometry" />
        </mxCell>
        <mxCell id="Rn8_tyqdsI2CR-qfbdHv-22" value="TP = 0&lt;br&gt;Kw = off" style="rounded=0;whiteSpace=wrap;html=1;" vertex="1" parent="WIyWlLk6GJQsqaUBKTNV-1">
          <mxGeometry x="184" y="910" width="120" height="50" as="geometry" />
        </mxCell>
        <mxCell id="Rn8_tyqdsI2CR-qfbdHv-43" style="edgeStyle=orthogonalEdgeStyle;rounded=0;orthogonalLoop=1;jettySize=auto;html=1;exitX=1;exitY=0.5;exitDx=0;exitDy=0;entryX=0;entryY=0.5;entryDx=0;entryDy=0;" edge="1" parent="WIyWlLk6GJQsqaUBKTNV-1" source="Rn8_tyqdsI2CR-qfbdHv-23" target="Rn8_tyqdsI2CR-qfbdHv-42">
          <mxGeometry relative="1" as="geometry" />
        </mxCell>
        <mxCell id="Rn8_tyqdsI2CR-qfbdHv-23" value="Конец" style="rounded=1;whiteSpace=wrap;html=1;" vertex="1" parent="WIyWlLk6GJQsqaUBKTNV-1">
          <mxGeometry x="184" y="1000" width="120" height="30" as="geometry" />
        </mxCell>
        <mxCell id="Rn8_tyqdsI2CR-qfbdHv-29" style="edgeStyle=orthogonalEdgeStyle;rounded=0;orthogonalLoop=1;jettySize=auto;html=1;exitX=0.5;exitY=1;exitDx=0;exitDy=0;entryX=0.5;entryY=0;entryDx=0;entryDy=0;" edge="1" parent="WIyWlLk6GJQsqaUBKTNV-1" source="Rn8_tyqdsI2CR-qfbdHv-24" target="Rn8_tyqdsI2CR-qfbdHv-27">
          <mxGeometry relative="1" as="geometry" />
        </mxCell>
        <mxCell id="Rn8_tyqdsI2CR-qfbdHv-24" value="K1 = off&lt;br&gt;K2 = on" style="rounded=0;whiteSpace=wrap;html=1;" vertex="1" parent="WIyWlLk6GJQsqaUBKTNV-1">
          <mxGeometry x="175" y="554" width="120" height="35" as="geometry" />
        </mxCell>
        <mxCell id="Rn8_tyqdsI2CR-qfbdHv-30" style="edgeStyle=orthogonalEdgeStyle;rounded=0;orthogonalLoop=1;jettySize=auto;html=1;exitX=0.5;exitY=1;exitDx=0;exitDy=0;entryX=0.5;entryY=0;entryDx=0;entryDy=0;" edge="1" parent="WIyWlLk6GJQsqaUBKTNV-1" target="Rn8_tyqdsI2CR-qfbdHv-31">
          <mxGeometry relative="1" as="geometry">
            <mxPoint x="236" y="686" as="sourcePoint" />
            <mxPoint x="250" y="703" as="targetPoint" />
          </mxGeometry>
        </mxCell>
        <mxCell id="Rn8_tyqdsI2CR-qfbdHv-45" value="да" style="edgeLabel;html=1;align=center;verticalAlign=middle;resizable=0;points=[];" vertex="1" connectable="0" parent="Rn8_tyqdsI2CR-qfbdHv-30">
          <mxGeometry x="-0.2896" y="1" relative="1" as="geometry">
            <mxPoint as="offset" />
          </mxGeometry>
        </mxCell>
        <mxCell id="Rn8_tyqdsI2CR-qfbdHv-37" style="edgeStyle=orthogonalEdgeStyle;rounded=0;orthogonalLoop=1;jettySize=auto;html=1;exitX=1;exitY=0.5;exitDx=0;exitDy=0;entryX=0;entryY=0.5;entryDx=0;entryDy=0;" edge="1" parent="WIyWlLk6GJQsqaUBKTNV-1" source="Rn8_tyqdsI2CR-qfbdHv-27" target="Rn8_tyqdsI2CR-qfbdHv-13">
          <mxGeometry relative="1" as="geometry" />
        </mxCell>
        <mxCell id="Rn8_tyqdsI2CR-qfbdHv-47" value="нет" style="edgeLabel;html=1;align=center;verticalAlign=middle;resizable=0;points=[];" vertex="1" connectable="0" parent="Rn8_tyqdsI2CR-qfbdHv-37">
          <mxGeometry x="-0.8638" relative="1" as="geometry">
            <mxPoint as="offset" />
          </mxGeometry>
        </mxCell>
        <mxCell id="Rn8_tyqdsI2CR-qfbdHv-27" value="D2 = on" style="rhombus;whiteSpace=wrap;html=1;" vertex="1" parent="WIyWlLk6GJQsqaUBKTNV-1">
          <mxGeometry x="196" y="615" width="80" height="80" as="geometry" />
        </mxCell>
        <mxCell id="Rn8_tyqdsI2CR-qfbdHv-34" style="edgeStyle=orthogonalEdgeStyle;rounded=0;orthogonalLoop=1;jettySize=auto;html=1;exitX=0.5;exitY=1;exitDx=0;exitDy=0;entryX=0.442;entryY=0.011;entryDx=0;entryDy=0;entryPerimeter=0;" edge="1" parent="WIyWlLk6GJQsqaUBKTNV-1" source="Rn8_tyqdsI2CR-qfbdHv-28" target="Rn8_tyqdsI2CR-qfbdHv-22">
          <mxGeometry relative="1" as="geometry" />
        </mxCell>
        <mxCell id="Rn8_tyqdsI2CR-qfbdHv-46" value="да" style="edgeLabel;html=1;align=center;verticalAlign=middle;resizable=0;points=[];" vertex="1" connectable="0" parent="Rn8_tyqdsI2CR-qfbdHv-34">
          <mxGeometry x="-0.1224" y="-2" relative="1" as="geometry">
            <mxPoint as="offset" />
          </mxGeometry>
        </mxCell>
        <mxCell id="Rn8_tyqdsI2CR-qfbdHv-40" style="edgeStyle=orthogonalEdgeStyle;rounded=0;orthogonalLoop=1;jettySize=auto;html=1;exitX=1;exitY=0.5;exitDx=0;exitDy=0;entryX=0;entryY=0.5;entryDx=0;entryDy=0;" edge="1" parent="WIyWlLk6GJQsqaUBKTNV-1" source="Rn8_tyqdsI2CR-qfbdHv-28" target="Rn8_tyqdsI2CR-qfbdHv-13">
          <mxGeometry relative="1" as="geometry" />
        </mxCell>
        <mxCell id="Rn8_tyqdsI2CR-qfbdHv-48" value="нет" style="edgeLabel;html=1;align=center;verticalAlign=middle;resizable=0;points=[];" vertex="1" connectable="0" parent="Rn8_tyqdsI2CR-qfbdHv-40">
          <mxGeometry x="-0.8939" relative="1" as="geometry">
            <mxPoint as="offset" />
          </mxGeometry>
        </mxCell>
        <mxCell id="Rn8_tyqdsI2CR-qfbdHv-28" value="D3 = on" style="rhombus;whiteSpace=wrap;html=1;" vertex="1" parent="WIyWlLk6GJQsqaUBKTNV-1">
          <mxGeometry x="197" y="793" width="80" height="80" as="geometry" />
        </mxCell>
        <mxCell id="Rn8_tyqdsI2CR-qfbdHv-32" style="edgeStyle=orthogonalEdgeStyle;rounded=0;orthogonalLoop=1;jettySize=auto;html=1;exitX=0.5;exitY=1;exitDx=0;exitDy=0;entryX=0.5;entryY=0;entryDx=0;entryDy=0;" edge="1" parent="WIyWlLk6GJQsqaUBKTNV-1" source="Rn8_tyqdsI2CR-qfbdHv-31" target="Rn8_tyqdsI2CR-qfbdHv-28">
          <mxGeometry relative="1" as="geometry" />
        </mxCell>
        <mxCell id="Rn8_tyqdsI2CR-qfbdHv-31" value="K2 = off&lt;br&gt;K3 = on" style="rounded=0;whiteSpace=wrap;html=1;" vertex="1" parent="WIyWlLk6GJQsqaUBKTNV-1">
          <mxGeometry x="177" y="733" width="120" height="35" as="geometry" />
        </mxCell>
        <mxCell id="Rn8_tyqdsI2CR-qfbdHv-42" value="Уведомления и т.п." style="rounded=0;whiteSpace=wrap;html=1;" vertex="1" parent="WIyWlLk6GJQsqaUBKTNV-1">
          <mxGeometry x="390" y="985" width="120" height="60" as="geometry" />
        </mxCell>
        <mxCell id="Rn8_tyqdsI2CR-qfbdHv-49" value="" style="shape=crossbar;whiteSpace=wrap;html=1;rounded=1;direction=south;" vertex="1" parent="WIyWlLk6GJQsqaUBKTNV-1">
          <mxGeometry x="60" y="210" width="20" height="200" as="geometry" />
        </mxCell>
        <mxCell id="Rn8_tyqdsI2CR-qfbdHv-50" value="Разгон" style="text;html=1;align=center;verticalAlign=middle;resizable=0;points=[];autosize=1;strokeColor=none;fillColor=none;rotation=-90;" vertex="1" parent="WIyWlLk6GJQsqaUBKTNV-1">
          <mxGeometry x="32" y="295" width="60" height="30" as="geometry" />
        </mxCell>
        <mxCell id="Rn8_tyqdsI2CR-qfbdHv-52" style="edgeStyle=orthogonalEdgeStyle;rounded=0;orthogonalLoop=1;jettySize=auto;html=1;exitX=0.5;exitY=1;exitDx=0;exitDy=0;entryX=1;entryY=0.5;entryDx=0;entryDy=0;" edge="1" parent="WIyWlLk6GJQsqaUBKTNV-1" source="Rn8_tyqdsI2CR-qfbdHv-51" target="Rn8_tyqdsI2CR-qfbdHv-22">
          <mxGeometry relative="1" as="geometry" />
        </mxCell>
        <mxCell id="Rn8_tyqdsI2CR-qfbdHv-53" style="edgeStyle=orthogonalEdgeStyle;rounded=0;orthogonalLoop=1;jettySize=auto;html=1;exitX=0.5;exitY=0;exitDx=0;exitDy=0;entryX=0.5;entryY=0;entryDx=0;entryDy=0;" edge="1" parent="WIyWlLk6GJQsqaUBKTNV-1" source="Rn8_tyqdsI2CR-qfbdHv-51" target="Rn8_tyqdsI2CR-qfbdHv-12">
          <mxGeometry relative="1" as="geometry" />
        </mxCell>
        <mxCell id="Rn8_tyqdsI2CR-qfbdHv-54" value="нет" style="edgeLabel;html=1;align=center;verticalAlign=middle;resizable=0;points=[];" vertex="1" connectable="0" parent="Rn8_tyqdsI2CR-qfbdHv-53">
          <mxGeometry x="-0.9386" y="1" relative="1" as="geometry">
            <mxPoint as="offset" />
          </mxGeometry>
        </mxCell>
        <mxCell id="Rn8_tyqdsI2CR-qfbdHv-51" value="MQ = on" style="rhombus;whiteSpace=wrap;html=1;" vertex="1" parent="WIyWlLk6GJQsqaUBKTNV-1">
          <mxGeometry x="560" y="440" width="80" height="80" as="geometry" />
        </mxCell>
      </root>
    </mxGraphModel>
  </diagram>
</mxfile>
